<svg width="414" height="414" viewBox="0 0 414 414" fill="none" xmlns="http://www.w3.org/2000/svg">
<path d="M293.233 267.69L270.217 219.5C269.844 218.719 269.152 218.137 268.32 217.904L267.625 217.71C263.695 216.611 259.686 216.052 255.712 216.052C239.111 216.052 224.623 225.274 217.107 238.867C215.865 235.426 214.319 232.101 212.481 228.923C222.18 215.526 237.945 206.795 255.712 206.795C255.96 206.795 256.21 206.802 256.46 206.808L262.554 206.931C263.324 206.946 263.841 206.144 263.509 205.45L208.104 89.4501C207.66 88.5207 206.338 88.5207 205.896 89.4501L150.498 205.441C150.166 206.138 150.683 206.938 151.453 206.923L157.206 206.808C157.566 206.802 157.926 206.798 158.288 206.798C176.054 206.798 191.82 215.528 201.519 228.925C199.682 232.101 198.136 235.426 196.894 238.87C189.377 225.277 174.889 216.054 158.288 216.054C154.25 216.054 150.246 216.602 146.388 217.68L145.694 217.874C144.859 218.107 144.167 218.689 143.796 219.47L120.768 267.69H108.38C107.705 267.69 107.155 268.238 107.155 268.915V275.638C107.155 276.313 107.703 276.863 108.38 276.863H162.152C162.827 276.863 163.377 276.315 163.377 275.638V268.915C163.377 268.24 162.829 267.69 162.152 267.69H150.761L170.066 227.271C183.54 232.114 193.202 245.017 193.202 260.137V275.644C193.202 276.319 193.75 276.869 194.427 276.869H219.58C220.255 276.869 220.805 276.322 220.805 275.644V260.137H220.8C220.8 245.017 230.462 232.114 243.937 227.271L263.242 267.69H251.85C251.175 267.69 250.625 268.238 250.625 268.915V275.638C250.625 276.313 251.173 276.863 251.85 276.863H305.623C306.298 276.863 306.848 276.315 306.848 275.638V268.915C306.848 268.24 306.3 267.69 305.623 267.69H293.233ZM140.596 267.69H130.93L150.83 226.023C153.269 225.492 155.768 225.225 158.288 225.225C159.144 225.225 159.992 225.257 160.833 225.318L140.596 267.69ZM207 108.419L249.739 197.907C246.705 198.194 243.717 198.699 240.793 199.412L208.104 130.971C207.66 130.041 206.338 130.041 205.896 130.971L173.208 199.41C170.284 198.696 167.295 198.192 164.261 197.905L207 108.419ZM182.007 202.267L207 149.937L231.993 202.267C224.423 205.37 217.469 209.976 211.509 215.936C209.907 217.538 208.404 219.211 207 220.949C205.597 219.211 204.094 217.538 202.492 215.936C196.532 209.976 189.578 205.37 182.007 202.267ZM211.63 267.697H202.373V260.137C202.373 252.402 204.027 245.049 207 238.408C209.974 245.047 211.628 252.402 211.628 260.137H211.63V267.697ZM253.166 225.32C254.006 225.259 254.854 225.227 255.71 225.227C258.19 225.227 260.695 225.505 263.181 226.053L283.068 267.692H273.402L253.166 225.32Z" fill="#013F3A"/>
<path d="M62.801 161.534C63.5018 162.696 63.6527 164.026 63.2797 165.318C62.9218 166.558 62.1326 167.558 61.0372 168.162C59.5084 169.005 58.2686 168.647 55.5948 167.873C52.9211 167.099 51.6813 166.741 50.8382 165.212C50.2344 164.117 50.0964 162.868 50.4608 161.611C51.1573 159.203 53.1863 158.025 55.5086 158.293L55.1183 159.638C53.4213 159.53 52.1211 160.382 51.664 161.958C51.4225 162.791 51.5282 163.685 51.9378 164.397C52.5222 165.43 53.3459 165.764 55.9851 166.527C58.6244 167.291 59.5171 167.452 60.5628 166.892C61.2873 166.506 61.8372 165.803 62.0787 164.971C62.3461 164.05 62.2296 163.056 61.6906 162.267C61.2205 161.574 60.5844 161.18 59.6119 160.897L58.6567 160.621L57.7597 163.72L56.5738 163.377L57.8589 158.933L59.8599 159.511C61.3089 159.931 62.1951 160.514 62.801 161.534Z" fill="#013F3A"/>
<path d="M71.3332 140.601C71.7645 141.776 71.7127 143.031 71.1629 144.219C70.613 145.407 69.6901 146.259 68.515 146.69C66.8762 147.291 65.7032 146.75 63.1783 145.581C60.6533 144.413 59.4803 143.869 58.8787 142.231C58.4475 141.056 58.4992 139.801 59.049 138.612C59.5989 137.424 60.5218 136.573 61.6969 136.141C63.3357 135.54 64.5065 136.081 67.0336 137.25C69.5608 138.418 70.7316 138.962 71.3332 140.601ZM61.9945 137.476C61.2182 137.748 60.552 138.354 60.1897 139.139C59.8253 139.926 59.7951 140.825 60.0905 141.59C60.511 142.699 61.2765 143.154 63.7691 144.307C66.2617 145.461 67.1026 145.75 68.2217 145.353C68.998 145.081 69.6643 144.475 70.0265 143.69C70.3909 142.903 70.4211 142.004 70.1257 141.239C69.7052 140.13 68.9398 139.676 66.4471 138.522C63.9524 137.368 63.1114 137.079 61.9945 137.476Z" fill="#013F3A"/>
<path d="M79.874 127.868L68.7693 120.869L69.5175 119.683L80.6222 126.682L79.874 127.868Z" fill="#013F3A"/>
<path d="M94.2564 108.425L81.7113 107.028L89.7908 113.775L88.8938 114.851L78.8176 106.439L79.6693 105.419L92.1864 106.793L84.1349 100.07L85.0319 98.9937L95.1081 107.405L94.2564 108.425Z" fill="#013F3A"/>
<path d="M109.965 91.0974C109.928 92.4537 109.342 93.6568 108.33 94.5431C107.36 95.3948 106.159 95.8131 104.911 95.7312C103.168 95.6169 102.317 94.6487 100.482 92.5572C98.6467 90.4656 97.795 89.4953 97.9071 87.753C97.9891 86.5046 98.5454 85.379 99.5286 84.5143C101.413 82.8605 103.757 82.9618 105.568 84.4367L104.516 85.3618C103.145 84.3591 101.59 84.3742 100.357 85.4566C99.7054 86.028 99.313 86.8388 99.272 87.6582C99.2073 88.8419 99.7227 89.5686 101.534 91.6321C103.345 93.6957 104.011 94.3145 105.193 94.4051C106.012 94.4719 106.853 94.1743 107.505 93.6029C108.225 92.9712 108.662 92.072 108.632 91.1168C108.609 90.2802 108.287 89.6053 107.619 88.8441L106.963 88.0959L104.54 90.2241L103.725 89.2969L107.201 86.2458L108.574 87.8112C109.57 88.9433 110.004 89.9114 109.965 91.0974Z" fill="#013F3A"/>
<path d="M133.957 62.8311L139.376 73.3946L138.13 74.035L132.711 63.4715L129.332 65.2051L128.761 64.0904L136.765 59.9849L137.336 61.0996L133.957 62.8311Z" fill="#013F3A"/>
<path d="M161.997 64.1314L160.078 58.4561L154.176 60.4506L156.096 66.1259L154.769 66.5744L150.565 54.1436L151.891 53.6951L153.773 59.2647L159.675 57.2702L157.792 51.7006L159.119 51.2521L163.321 63.685L161.997 64.1314Z" fill="#013F3A"/>
<path d="M177.278 60.1856L175.001 47.2611L183.025 45.8466L183.243 47.0799L176.597 48.2508L177.399 52.8069L183.064 51.8086L183.281 53.0441L177.617 54.0425L178.439 58.7086L185.082 57.5377L185.3 58.7711L177.278 60.1856Z" fill="#013F3A"/>
<path d="M214.088 57.4082L215.015 44.3176L223.142 44.8933L223.054 46.144L216.324 45.6674L215.996 50.2818L221.732 50.6893L221.644 51.94L215.908 51.5324L215.574 56.2568L222.303 56.7333L222.215 57.9839L214.088 57.4082Z" fill="#013F3A"/>
<path d="M241.811 61.3197L239.853 55.2607L235.558 59.9721L234.008 59.6378L239.351 53.9065L237.022 46.8621L238.607 47.2027L240.364 52.878L244.301 48.4275L245.886 48.7682L240.845 54.2257L243.394 61.6561L241.811 61.3197Z" fill="#013F3A"/>
<path d="M263.365 55.5173L259.274 66.6608L257.959 66.1778L262.05 55.0343L258.485 53.7254L258.916 52.5481L267.36 55.6488L266.929 56.8261L263.365 55.5173Z" fill="#013F3A"/>
<path d="M281.348 76.9697L281.503 70.4276L278.735 68.9226L275.955 74.0415L274.724 73.3731L280.988 61.8414L285.41 64.2435C287.418 65.3346 288.168 67.314 287.086 69.3064C286.171 70.9904 284.552 71.5381 282.896 71.0357L282.793 77.7546L281.348 76.9697ZM284.697 65.2807L281.62 63.6096L279.323 67.8358L282.4 69.5069C283.744 70.2379 285.078 70.0589 285.844 68.6509C286.609 67.2428 286.042 66.0116 284.697 65.2807Z" fill="#013F3A"/>
<path d="M300.202 89.7562L301.151 86.7546L296.575 83.3025L293.949 85.0383L292.757 84.1391L304.517 76.5707L305.459 77.2822L301.395 90.6553L300.202 89.7562ZM303.792 78.5415L297.647 82.5866L301.561 85.5407L303.792 78.5415Z" fill="#013F3A"/>
<path d="M327.465 117.992L335.312 111.838L326.87 113.889L326.131 112.947L330.103 105.195L322.256 111.349L321.391 110.247L331.72 102.148L332.584 103.25L327.899 112.36L337.794 109.893L338.659 110.995L328.33 119.094L327.465 117.992Z" fill="#013F3A"/>
<path d="M336.149 131.221L347.495 124.621L348.2 125.833L336.854 132.433L336.149 131.221Z" fill="#013F3A"/>
<path d="M343.484 145.282L355.557 140.137L356.107 141.427L345.185 146.08L347.816 152.253L346.662 152.745L343.484 145.282Z" fill="#013F3A"/>
<path d="M350.829 165.122L363.516 161.764L365.601 169.641L364.389 169.962L362.664 163.44L358.192 164.623L359.663 170.182L358.451 170.504L356.98 164.945L352.401 166.157L354.126 172.679L352.914 173L350.829 165.122Z" fill="#013F3A"/>
<path d="M51.7847 252.739C50.5815 252.111 49.76 251.055 49.4063 249.757C49.0678 248.512 49.2187 247.247 49.8397 246.162C50.7066 244.646 51.9507 244.306 54.6374 243.575C57.3241 242.844 58.5682 242.503 60.0841 243.37C61.1708 243.991 61.9385 244.985 62.2813 246.248C62.9411 248.668 61.822 250.731 59.7003 251.71L59.3316 250.358C60.8345 249.567 61.5029 248.161 61.0716 246.578C60.8431 245.742 60.2868 245.034 59.5687 244.638C58.5316 244.06 57.654 244.204 55.004 244.927C52.3539 245.649 51.5065 245.975 50.9071 246.999C50.4888 247.706 50.3853 248.592 50.6138 249.429C50.8661 250.354 51.4806 251.141 52.3539 251.533C53.1172 251.878 53.8633 251.887 54.8422 251.62L55.8018 251.359L54.9544 248.247L56.1468 247.922L57.3629 252.385L55.3533 252.933C53.8956 253.33 52.8348 253.293 51.7847 252.739Z" fill="#013F3A"/>
<path d="M60.0844 275.101C58.9178 274.646 58.0122 273.777 57.4861 272.578C56.96 271.379 56.9319 270.124 57.3847 268.958C58.0187 267.33 59.2003 266.81 61.749 265.691C64.2977 264.572 65.4793 264.052 67.1051 264.686C68.2716 265.141 69.1773 266.01 69.7034 267.209C70.2295 268.408 70.2576 269.663 69.8047 270.829C69.1708 272.457 67.9892 272.977 65.4405 274.096C62.8918 275.215 61.7102 275.735 60.0844 275.101ZM68.6059 270.167C68.9164 269.406 68.9034 268.507 68.5541 267.714C68.2048 266.92 67.5515 266.301 66.7817 266.017C65.6712 265.598 64.8238 265.87 62.3096 266.974C59.7954 268.078 59.0213 268.52 58.5793 269.62C58.2688 270.381 58.2817 271.28 58.6311 272.074C58.9804 272.867 59.6337 273.486 60.4035 273.771C61.514 274.189 62.3614 273.917 64.8756 272.813C67.3919 271.707 68.1638 271.267 68.6059 270.167Z" fill="#013F3A"/>
<path d="M66.6843 290.266L77.9507 283.532L78.6687 284.735L67.4023 291.469L66.6843 290.266Z" fill="#013F3A"/>
<path d="M81.4157 311.268L85.3336 299.268L77.0859 305.808L76.2148 304.711L86.5001 296.556L87.3238 297.595L83.4339 309.571L91.6535 303.055L92.5247 304.152L82.2393 312.307L81.4157 311.268Z" fill="#013F3A"/>
<path d="M99.7463 328.186C98.3943 328.291 97.1372 327.832 96.1475 326.918C95.1987 326.043 94.6597 324.889 94.6101 323.638C94.5411 321.894 95.4165 320.945 97.3054 318.901C99.1943 316.857 100.07 315.908 101.816 315.839C103.067 315.79 104.244 316.225 105.206 317.113C107.047 318.815 107.192 321.156 105.913 323.112L104.885 322.161C105.741 320.693 105.562 319.147 104.356 318.034C103.72 317.446 102.873 317.139 102.053 317.185C100.87 317.245 100.201 317.832 98.3361 319.85C96.4709 321.868 95.9275 322.593 95.9599 323.778C95.9793 324.6 96.3631 325.406 96.9992 325.995C97.7021 326.646 98.6423 326.987 99.591 326.858C100.421 326.748 101.057 326.355 101.747 325.611L102.422 324.88L100.05 322.696L100.889 321.788L104.287 324.928L102.873 326.459C101.846 327.569 100.93 328.1 99.7463 328.186Z" fill="#013F3A"/>
<path d="M134.684 339.892L128.97 350.298L127.741 349.624L133.455 339.218L130.126 337.391L130.729 336.292L138.615 340.621L138.011 341.721L134.684 339.892Z" fill="#013F3A"/>
<path d="M152.775 360.907L154.873 355.294L149.036 353.112L146.938 358.725L145.625 358.233L150.22 345.938L151.533 346.428L149.474 351.937L155.311 354.119L157.37 348.612L158.683 349.102L154.088 361.396L152.775 360.907Z" fill="#013F3A"/>
<path d="M169.492 365.828L172.233 352.994L180.2 354.695L179.939 355.92L173.341 354.512L172.375 359.038L177.999 360.239L177.738 361.464L172.114 360.263L171.124 364.896L177.723 366.304L177.462 367.529L169.492 365.828Z" fill="#013F3A"/>
<path d="M208.865 370.22L208.43 357.101L216.574 356.832L216.615 358.085L209.872 358.309L210.025 362.934L215.774 362.742L215.815 363.995L210.066 364.185L210.224 368.92L216.966 368.696L217.007 369.948L208.865 370.22Z" fill="#013F3A"/>
<path d="M238.268 367.201L234.175 362.324L231.969 368.307L230.408 368.581L233.203 361.261L228.394 355.611L229.992 355.331L233.757 359.93L235.73 354.326L237.328 354.046L234.712 361L239.87 366.925L238.268 367.201Z" fill="#013F3A"/>
<path d="M253.782 350.889L257.416 362.19L256.081 362.619L252.448 351.318L248.834 352.48L248.45 351.286L257.015 348.532L257.398 349.727L253.782 350.889Z" fill="#013F3A"/>
<path d="M281.324 352.336L276.153 348.321L273.296 349.653L275.761 354.932L274.491 355.525L268.938 343.633L273.499 341.503C275.571 340.537 277.609 341.11 278.568 343.165C279.379 344.903 278.857 346.529 277.468 347.564L282.812 351.642L281.324 352.336ZM273.913 342.695L270.739 344.177L272.774 348.537L275.948 347.055C277.335 346.408 277.986 345.229 277.307 343.776C276.627 342.322 275.299 342.048 273.913 342.695Z" fill="#013F3A"/>
<path d="M302.224 339.571L299.687 337.708L294.947 340.933L295.749 343.978L294.516 344.819L291.124 331.252L292.099 330.588L303.46 338.73L302.224 339.571ZM292.754 332.569L294.613 339.689L298.667 336.929L292.754 332.569Z" fill="#013F3A"/>
<path d="M332.988 310.809L325.456 304.275L329.074 312.171L328.289 313.077L319.925 310.653L327.457 317.187L326.539 318.246L316.624 309.647L317.543 308.588L327.377 311.456L323.076 302.21L323.994 301.151L333.909 309.75L332.988 310.809Z" fill="#013F3A"/>
<path d="M343.234 296.817L332.24 289.652L333.005 288.479L344 295.644L343.234 296.817Z" fill="#013F3A"/>
<path d="M351.956 281.971L340.172 276.192L340.789 274.935L351.448 280.162L354.402 274.138L355.527 274.69L351.956 281.971Z" fill="#013F3A"/>
<path d="M360.961 261.109L348.487 257.032L351.018 249.287L352.211 249.677L350.115 256.09L354.514 257.528L356.301 252.062L357.493 252.452L355.706 257.918L360.208 259.389L362.304 252.976L363.496 253.364L360.961 261.109Z" fill="#013F3A"/>
<path d="M50.3313 212.995L42.1397 204.803L50.3313 196.611L58.5229 204.803L50.3313 212.995ZM43.8777 204.803L50.3313 211.257L56.785 204.803L50.3313 198.349L43.8777 204.803Z" fill="#013F3A"/>
<path d="M53.2742 204.803L50.3331 201.862L47.3919 204.803L50.3331 207.744L53.2742 204.803Z" fill="#013F3A"/>
<path d="M363.669 212.995L355.477 204.803L363.669 196.611L371.86 204.803L363.669 212.995ZM357.215 204.803L363.669 211.257L370.122 204.803L363.669 198.349L357.215 204.803Z" fill="#013F3A"/>
<path d="M366.61 204.801L363.669 201.86L360.727 204.801L363.669 207.742L366.61 204.801Z" fill="#013F3A"/>
</svg>
