<svg width="176" height="32" viewBox="0 0 176 32" fill="none" xmlns="http://www.w3.org/2000/svg">
<path d="M0.908 32V31.181L4.73 29.621L16.001 0.019998H16.625L27.272 30.596L30.86 31.181V32H19.394V31.181L22.592 30.674L19.277 21.431H8.903L5.744 29.621L9.254 31.181V32H0.908ZM9.215 20.612H19.004L14.324 6.884L9.215 20.612ZM31.6692 32V31.181L35.4912 29.621L46.7623 0.019998H47.3863L58.0332 30.596L61.6212 31.181V32H50.1552V31.181L53.3532 30.674L50.0383 21.431H39.6642L36.5052 29.621L40.0152 31.181V32H31.6692ZM39.9762 20.612H49.7653L45.0853 6.884L39.9762 20.612ZM65.0825 32V31.181L68.6705 30.596V2.204L65.0825 1.658V0.8H76.5485V1.658L72.9605 2.204V31.064H84.6215L87.8195 22.484H88.8725V32H65.0825ZM91.4779 32V31.181L95.2999 29.621L106.571 0.019998H107.195L117.842 30.596L121.43 31.181V32H109.964V31.181L113.162 30.674L109.847 21.431H99.4729L96.3139 29.621L99.8239 31.181V32H91.4779ZM99.7849 20.612H109.574L104.894 6.884L99.7849 20.612ZM128.233 32V31.181L131.86 30.596V18.74L122.383 2.204L119.302 1.658V0.8H131.041V1.658L127.414 2.204L135.604 16.361L143.131 3.53L138.451 1.658V0.8H147.187V1.658L144.184 3.569L136.072 17.453V30.596L139.699 31.181V32H128.233ZM145.117 32V31.181L148.939 29.621L160.21 0.019998H160.834L171.481 30.596L175.069 31.181V32H163.603V31.181L166.801 30.674L163.486 21.431H153.112L149.953 29.621L153.463 31.181V32H145.117ZM153.424 20.612H163.213L158.533 6.884L153.424 20.612Z" fill="#E3B486"/>
</svg>
