<svg width="212" height="33" viewBox="0 0 212 33" fill="none" xmlns="http://www.w3.org/2000/svg">
<path d="M0.908 32V31.181L4.73 29.621L16.001 0.019998H16.625L27.272 30.596L30.86 31.181V32H19.394V31.181L22.592 30.674L19.277 21.431H8.903L5.744 29.621L9.254 31.181V32H0.908ZM9.215 20.612H19.004L14.324 6.884L9.215 20.612ZM31.6692 32V31.181L35.4912 29.621L46.7623 0.019998H47.3863L58.0332 30.596L61.6212 31.181V32H50.1552V31.181L53.3532 30.674L50.0383 21.431H39.6642L36.5052 29.621L40.0152 31.181V32H31.6692ZM39.9762 20.612H49.7653L45.0853 6.884L39.9762 20.612ZM77.4455 32.78C75.0275 32.78 72.6485 32.091 70.3085 30.713L66.9935 32.39H66.1355V22.367H66.9935L70.3475 29.621C72.5055 31.155 74.9755 31.922 77.7575 31.922C80.0455 31.922 81.9305 31.324 83.4125 30.128C84.9205 28.906 85.6745 27.203 85.6745 25.019C85.6745 23.433 85.1935 22.185 84.2315 21.275C83.2695 20.339 81.7095 19.598 79.5515 19.052L73.0775 17.375C70.8155 16.777 69.1125 15.763 67.9685 14.333C66.8245 12.877 66.2525 11.161 66.2525 9.185C66.2525 7.391 66.6035 5.805 67.3055 4.427C68.0335 3.023 69.0865 1.944 70.4645 1.19C71.8425 0.409998 73.4805 0.019998 75.3785 0.019998C77.7445 0.019998 79.8635 0.422998 81.7355 1.229L84.5825 0.019998H85.4405V7.976H84.5825L81.7745 2.282C79.8245 1.346 77.7055 0.877999 75.4175 0.877999C73.1555 0.877999 71.3745 1.463 70.0745 2.633C68.7745 3.777 68.1245 5.298 68.1245 7.196C68.1245 8.6 68.5795 9.705 69.4895 10.511C70.4255 11.317 71.7905 11.954 73.5845 12.422L80.5655 14.255C82.8275 14.827 84.5045 15.815 85.5965 17.219C86.7145 18.597 87.2735 20.703 87.2735 23.537C87.2735 26.423 86.3765 28.685 84.5825 30.323C82.8145 31.961 80.4355 32.78 77.4455 32.78ZM93.7871 32V31.181L97.3751 30.596V2.204L93.7871 1.658V0.8H105.253V1.658L101.665 2.204V14.996H116.485V2.204L112.858 1.658V0.8H124.402V1.658L120.775 2.204V30.596L124.402 31.181V32H112.858V31.181L116.485 30.596V15.971H101.665V30.596L105.253 31.181V32H93.7871ZM127.609 32V31.181L131.431 29.621L142.702 0.019998H143.326L153.973 30.596L157.561 31.181V32H146.095V31.181L149.293 30.674L145.978 21.431H135.604L132.445 29.621L135.955 31.181V32H127.609ZM135.916 20.612H145.705L141.025 6.884L135.916 20.612ZM164.364 32V31.181L167.991 30.596V18.74L158.514 2.204L155.433 1.658V0.8H167.172V1.658L163.545 2.204L171.735 16.361L179.262 3.53L174.582 1.658V0.8H183.318V1.658L180.315 3.569L172.203 17.453V30.596L175.83 31.181V32H164.364ZM181.248 32V31.181L185.07 29.621L196.341 0.019998H196.965L207.612 30.596L211.2 31.181V32H199.734V31.181L202.932 30.674L199.617 21.431H189.243L186.084 29.621L189.594 31.181V32H181.248ZM189.555 20.612H199.344L194.664 6.884L189.555 20.612Z" fill="#013F3A"/>
</svg>
