<svg width="173" height="33" viewBox="0 0 173 33" fill="none" xmlns="http://www.w3.org/2000/svg">
<path d="M0.908 32V31.181L4.73 29.621L16.001 0.019998H16.625L27.272 30.596L30.86 31.181V32H19.394V31.181L22.592 30.674L19.277 21.431H8.903L5.744 29.621L9.254 31.181V32H0.908ZM9.215 20.612H19.004L14.324 6.884L9.215 20.612ZM38.4553 32.78C36.8952 32.78 35.5952 32.442 34.5552 31.766C33.5412 31.09 33.0342 30.102 33.0342 28.802C33.0342 27.944 33.2682 27.255 33.7362 26.735C34.2302 26.189 34.8672 25.916 35.6472 25.916C36.2712 25.916 36.7652 26.085 37.1292 26.423C37.4932 26.761 37.7402 27.125 37.8703 27.515C38.0262 27.879 38.1042 28.113 38.1042 28.217C37.3502 28.763 36.9732 29.4 36.9732 30.128C36.9732 30.622 37.1292 31.038 37.4412 31.376C37.7532 31.714 38.1822 31.883 38.7283 31.883C39.5602 31.883 40.2102 31.324 40.6782 30.206C41.1723 29.062 41.4193 27.099 41.4193 24.317V2.204L37.8312 1.658V0.8H49.1413V1.658L45.5532 2.204V24.317C45.5532 26.137 45.3712 27.658 45.0072 28.88C44.6693 30.076 43.9803 31.025 42.9402 31.727C41.9003 32.429 40.4053 32.78 38.4553 32.78ZM49.9383 32V31.181L53.7603 29.621L65.0313 0.019998H65.6553L76.3023 30.596L79.8903 31.181V32H68.4243V31.181L71.6223 30.674L68.3073 21.431H57.9333L54.7743 29.621L58.2843 31.181V32H49.9383ZM58.2453 20.612H68.0343L63.3543 6.884L58.2453 20.612ZM83.4686 32V31.181L87.0956 29.621V3.179L83.4686 1.658V0.8H90.7226L107.532 24.356V3.179L103.905 1.658V0.8H112.212V1.658L108.507 3.179V32H107.532L88.0706 4.661V29.621L91.8146 31.181V32H83.4686ZM124.202 32V31.181L127.79 30.596V1.775H121.355L118.391 9.497H117.26V0.8H142.649V9.497H141.479L138.554 1.775H132.08V30.596L135.668 31.181V32H124.202ZM142.489 32V31.181L146.311 29.621L157.582 0.019998H158.206L168.853 30.596L172.441 31.181V32H160.975V31.181L164.173 30.674L160.858 21.431H150.484L147.325 29.621L150.835 31.181V32H142.489ZM150.796 20.612H160.585L155.905 6.884L150.796 20.612Z" fill="#E3B486"/>
</svg>
