<svg width="190" height="33" viewBox="0 0 190 33" fill="none" xmlns="http://www.w3.org/2000/svg">
<path d="M5.694 32.78C4.134 32.78 2.834 32.442 1.794 31.766C0.78 31.09 0.273 30.102 0.273 28.802C0.273 27.944 0.507 27.255 0.975 26.735C1.469 26.189 2.106 25.916 2.886 25.916C3.51 25.916 4.004 26.085 4.368 26.423C4.732 26.761 4.979 27.125 5.109 27.515C5.265 27.879 5.343 28.113 5.343 28.217C4.589 28.763 4.212 29.4 4.212 30.128C4.212 30.622 4.368 31.038 4.68 31.376C4.992 31.714 5.421 31.883 5.967 31.883C6.799 31.883 7.449 31.324 7.917 30.206C8.411 29.062 8.658 27.099 8.658 24.317V2.204L5.07 1.658V0.8H16.38V1.658L12.792 2.204V24.317C12.792 26.137 12.61 27.658 12.246 28.88C11.908 30.076 11.219 31.025 10.179 31.727C9.139 32.429 7.644 32.78 5.694 32.78ZM21.7714 31.181L25.3594 30.596V2.204L21.7714 1.658V0.8H34.0174C37.8654 0.8 40.7254 1.619 42.5974 3.257C44.4694 4.895 45.4054 7.261 45.4054 10.355C45.4054 13.449 44.4694 15.815 42.5974 17.453C40.7254 19.091 37.8654 19.91 34.0174 19.91H29.6494V30.596L33.2374 31.181V32H21.7714V31.181ZM33.4714 18.974C38.2814 18.974 40.6864 16.361 40.6864 11.135V9.575C40.6864 4.375 38.2814 1.775 33.4714 1.775H29.6494V18.974H33.4714ZM79.4467 32.39L67.8247 2.204V29.621L71.5687 31.181V32H63.2227V31.181L66.8887 29.621V2.204L63.3007 1.658V0.8H71.9197L81.7087 25.838L91.6927 0.8H99.5707V1.658L95.9827 2.204V30.596L99.5707 31.181V32H88.1047V31.181L91.6927 30.596V3.374L80.1487 32.39H79.4467ZM102.758 32V31.181L106.58 29.621L117.851 0.019998H118.475L129.122 30.596L132.71 31.181V32H121.244V31.181L124.442 30.674L121.127 21.431H110.753L107.594 29.621L111.104 31.181V32H102.758ZM111.065 20.612H120.854L116.174 6.884L111.065 20.612ZM136.171 32V31.181L139.759 30.596V2.204L136.171 1.658V0.8H147.637V1.658L144.049 2.204V31.064H155.71L158.908 22.484H159.961V32H136.171ZM165.218 32V31.181L168.806 30.596V2.204L165.218 1.658V0.8H176.684V1.658L173.096 2.204V31.064H184.757L187.955 22.484H189.008V32H165.218Z" fill="#013F3A"/>
</svg>
