<svg width="79" height="102" viewBox="0 0 79 102" fill="none" xmlns="http://www.w3.org/2000/svg">
<path d="M72.6902 69.9043L63.6997 51.0782C63.5534 50.7736 63.2832 50.5464 62.9579 50.4552L62.6877 50.3795C61.1508 49.9492 59.5864 49.7324 58.0341 49.7324C51.5476 49.7324 45.889 53.3362 42.9529 58.6455C42.4676 57.3014 41.8635 56.002 41.1459 54.7612C44.9355 49.5276 51.0933 46.1166 58.0341 46.1166C58.1305 46.1166 58.2286 46.1183 58.3267 46.1217L60.7068 46.1699C61.008 46.1768 61.2094 45.8636 61.0803 45.5916L39.4352 0.272349C39.2614 -0.0907831 38.745 -0.0907831 38.5729 0.272349L16.9313 45.5865C16.8022 45.8584 17.0036 46.1716 17.3047 46.1647L19.5524 46.12C19.6935 46.1166 19.8346 46.1166 19.9757 46.1166C26.9166 46.1166 33.0743 49.5276 36.864 54.7612C36.1463 56.002 35.5423 57.3014 35.0569 58.6455C32.1209 53.3345 26.4605 49.7324 19.9757 49.7324C18.3976 49.7324 16.8332 49.9458 15.3273 50.3674L15.0571 50.4432C14.7318 50.5344 14.4616 50.7616 14.3153 51.0662L5.31792 69.9043H0.478445C0.215131 69.9043 0 70.1177 0 70.3828V73.009C0 73.2723 0.21341 73.4875 0.478445 73.4875H21.4833C21.7467 73.4875 21.9618 73.2741 21.9618 73.009V70.3828C21.9618 70.1195 21.7484 69.9043 21.4833 69.9043H17.0328L24.5743 54.1141C29.8371 56.0055 33.613 61.0463 33.613 66.9528V73.0107C33.613 73.2741 33.8264 73.4892 34.0914 73.4892H43.9167C44.18 73.4892 44.3951 73.2758 44.3951 73.0107V66.9528C44.3951 61.0463 48.1693 56.0055 53.4338 54.1141L60.9753 69.9043H56.5248C56.2615 69.9043 56.0463 70.1177 56.0463 70.3828V73.009C56.0463 73.2723 56.2598 73.4875 56.5248 73.4875H77.5314C77.7947 73.4875 78.0098 73.2741 78.0098 73.009V70.3828C78.0098 70.1195 77.7964 69.9043 77.5314 69.9043H72.6902ZM13.0625 69.9043H9.28656L17.0604 53.627C18.0121 53.4205 18.9896 53.3155 19.974 53.3155C20.3079 53.3155 20.6401 53.3276 20.9688 53.3517L13.0625 69.9043ZM39.0032 7.68301L55.7004 42.6418C54.5146 42.7537 53.3478 42.9516 52.205 43.2287L39.4352 16.4911C39.2614 16.128 38.745 16.128 38.5729 16.4911L25.8031 43.2287C24.6603 42.9499 23.4935 42.752 22.3077 42.6418L39.0032 7.68301ZM29.2399 44.3456L39.0032 23.9018L48.7665 44.3456C45.8081 45.5572 43.0923 47.3574 40.7638 49.6842C40.1373 50.3107 39.5505 50.9629 39.0015 51.6427C38.4525 50.9646 37.8656 50.3107 37.2392 49.6842C34.9124 47.3574 32.1966 45.5572 29.2399 44.3456ZM40.812 69.9061H37.1961V66.9528C37.1961 63.9324 37.8432 61.0583 39.0032 58.4648C40.1649 61.0583 40.8103 63.9324 40.8103 66.9528V69.9061H40.812ZM57.0376 53.3517C57.3664 53.3276 57.6968 53.3155 58.0324 53.3155C59.0013 53.3155 59.9806 53.424 60.9512 53.6374L68.7198 69.9043H64.9439L57.0376 53.3517Z" fill="#E3B486"/>
<path d="M23.1037 86.5753C23.0211 86.3981 22.7182 86.3981 22.6356 86.5753L16.0389 100.756C15.9753 100.894 16.0975 101.042 16.273 101.042H18.8752C18.9801 101.042 19.0748 100.987 19.1109 100.906L19.7993 99.359L20.7476 97.2593L22.8679 92.2065L24.9899 97.2593H22.4549L21.5083 99.359H25.9365L26.649 100.908C26.6868 100.989 26.7798 101.042 26.883 101.042H29.4869C29.6642 101.042 29.7846 100.894 29.721 100.756L23.1037 86.5753Z" fill="#E3B486"/>
<path d="M40.7719 88.7147C42.03 88.7147 43.1934 89.1966 44.0556 89.9866C44.1399 90.064 44.2673 90.064 44.3482 89.9831L45.7594 88.5719C45.842 88.4893 45.842 88.3533 45.7577 88.2742C44.4618 87.0316 42.7132 86.2812 40.7736 86.2812C36.5107 86.2812 33.4766 89.3791 33.4766 93.7659C33.4766 98.3404 36.762 101.251 40.7736 101.251C42.7132 101.251 44.4618 100.5 45.7577 99.2783C45.842 99.1974 45.842 99.0632 45.7611 98.9788L44.3499 97.5504C44.269 97.4695 44.1416 97.4695 44.0573 97.547C43.1968 98.3369 42.0317 98.8188 40.7754 98.8188C38.094 98.8188 35.9514 96.8861 35.9514 93.7659C35.9497 90.835 37.7791 88.7147 40.7719 88.7147Z" fill="#E3B486"/>
<path d="M60.3964 88.9211C60.5117 88.9211 60.6064 88.8281 60.6064 88.7111V86.6975C60.6064 86.5822 60.5134 86.4875 60.3964 86.4875H51.1064C50.9911 86.4875 50.8964 86.5805 50.8964 86.6975V100.832C50.8964 100.947 50.9894 101.042 51.1064 101.042H60.3964C60.5117 101.042 60.6064 100.949 60.6064 100.832V98.8186C60.6064 98.7033 60.5134 98.6086 60.3964 98.6086H53.3282V94.9704H59.1693C59.2846 94.9704 59.3793 94.8775 59.3793 94.7604V92.7675C59.3793 92.6522 59.2863 92.5575 59.1693 92.5575H53.3282V88.9193H60.3964V88.9211Z" fill="#E3B486"/>
</svg>
